<svg width="64" height="64" viewBox="0 0 64 64" fill="none" xmlns="http://www.w3.org/2000/svg">
<path d="M56 32C56 18.75 45.25 8 32 8C18.75 8 8 18.75 8 32C8 45.25 18.75 56 32 56C45.25 56 56 45.25 56 32Z" stroke="white" stroke-width="4" stroke-miterlimit="10"/>
<path d="M27.04 41.805L41.3463 33.1625C41.5457 33.041 41.7105 32.8703 41.8249 32.6667C41.9392 32.4631 41.9993 32.2335 41.9993 32C41.9993 31.7665 41.9392 31.5369 41.8249 31.3333C41.7105 31.1297 41.5457 30.959 41.3463 30.8375L27.04 22.195C26.835 22.0721 26.6009 22.006 26.3619 22.0035C26.1228 22.0009 25.8874 22.062 25.6798 22.1805C25.4722 22.2989 25.2998 22.4705 25.1803 22.6775C25.0609 22.8846 24.9986 23.1197 25 23.3587V40.6412C24.9986 40.8803 25.0609 41.1154 25.1803 41.3224C25.2998 41.5295 25.4722 41.7011 25.6798 41.8195C25.8874 41.938 26.1228 41.999 26.3619 41.9965C26.6009 41.9939 26.835 41.9278 27.04 41.805Z" fill="white"/>
</svg>
